Ice Age: Dawn of the Dinosaurs              (2009)  mkv 3d

imdb: http://www.imdb.com/title/tt1080016/

PLOT:

When Sid\'s attempt to adopt three dinosaur eggs gets him abducted by their real mother to an underground lost world, his friends attempt to rescue him.

Format                           : Matroska
Format version                   : Version 2
File size                        : 8.97 GiB
Duration                         : 1h 34mn
Overall bit rate                 : 13.7 Mbps
Movie name                       : ICEAGE: DAWN OF THE DINOSAURS
Writing library                  : libebml v0.7.8 + libmatroska v0.8.1

Video
ID                               : 1
Format                           : AVC
Format/Info                      : Advanced Video Codec
Format profile                   : High@L5.1
Format settings, CABAC           : Yes
Format settings, ReFrames        : 2 frames
Codec ID                         : V_MPEG4/ISO/AVC
Duration                         : 1h 34mn
Bit rate                         : 11.9 Mbps
Width                            : 1 920 pixels
Height                           : 1 080 pixels
Display aspect ratio             : 16:9
Frame rate                       : 23.976 fps
Color space                      : YUV
Chroma subsampling               : 4:2:0
Bit depth                        : 8 bits
Scan type                        : Progressive
Bits/(Pixel*Frame)               : 0.239
Stream size                      : 7.80 GiB (87%)
Writing library                  : x264 core
Color primaries                  : BT.709-5, BT.1361, IEC 61966-2-4, SMPTE RP177
Transfer characteristics         : BT.709-5, BT.1361
Matrix coefficients              : BT.709-5, BT.1361, IEC 61966-2-4 709, SMPTE RP177

Audio
ID                               : 2
Format                           : DTS
Format/Info                      : Digital Theater Systems
Format profile                   : ES
Codec ID                         : A_DTS
Duration                         : 1h 34mn
Bit rate mode                    : Constant
Bit rate                         : 1 510 Kbps
Channel(s)                       : 6 channels
Channel positions                : Front: L C R, Side: L R, LFE
Sampling rate                    : 48.0 KHz
Bit depth                        : 16 bits
Compression mode                 : Lossy
Stream size                      : 1 015 MiB (11%)

+the folder cortains 5.1 channel mp4 audio stream/engish

Format                           : MPEG-4
Format profile                   : Base Media
Codec ID                         : isom
File size                        : 303 MiB
Duration                         : 1h 34mn
Overall bit rate                 : 451 Kbps
Track name                       : ICEAGE 3
Writing application              : Lavf52.78.4

Audio
ID                               : 1
Format                           : AAC
Format/Info                      : Advanced Audio Codec
Format profile                   : LC
Codec ID                         : 40
Duration                         : 1h 34mn
Bit rate mode                    : Variable
Bit rate                         : 448 Kbps
Channel(s)                       : 6 channels
Channel positions                : Front: L C R, Side: L R, LFE
Sampling rate                    : 48.0 KHz
Compression mode                 : Lossy
Stream size                      : 301 MiB (99%)

                    !!YOU NEED 3D EQUIPMENT TO WATCH THIS!!

                                     (LiG)	